<mxfile host="app.diagrams.net" modified="2023-12-02T04:30:58.434Z" agent="Mozilla/5.0 (Macintosh; Intel Mac OS X 10_15_7) AppleWebKit/537.36 (KHTML, like Gecko) Chrome/119.0.0.0 Safari/537.36" version="22.1.5" etag="PWTkqLe9lrmgjIzu_8qE" type="github">
  <diagram name="第 1 页" id="dnOTGt942C42ZDRGoa7F">
    <mxGraphModel>
      <root>
        <mxCell id="0" />
        <mxCell id="1" parent="0" />
      </root>
    </mxGraphModel>
  </diagram>
</mxfile>
